<?xml version="1.0" encoding="UTF-8" standalone="no"?>
<svg
   xmlns:dc="http://purl.org/dc/elements/1.1/"
   xmlns:cc="http://creativecommons.org/ns#"
   xmlns:rdf="http://www.w3.org/1999/02/22-rdf-syntax-ns#"
   xmlns:svg="http://www.w3.org/2000/svg"
   xmlns="http://www.w3.org/2000/svg"
   xmlns:sodipodi="http://sodipodi.sourceforge.net/DTD/sodipodi-0.dtd"
   xmlns:inkscape="http://www.inkscape.org/namespaces/inkscape"
   enable-background="new 0 0 24 24"
   height="24px"
   viewBox="0 0 24 24"
   width="24px"
   fill="#000000"
   version="1.1"
   id="svg14"
   sodipodi:docname="medkit.svg"
   inkscape:version="0.92.3 (2405546, 2018-03-11)">
  <metadata
     id="metadata20">
    <rdf:RDF>
      <cc:Work
         rdf:about="">
        <dc:format>image/svg+xml</dc:format>
        <dc:type
           rdf:resource="http://purl.org/dc/dcmitype/StillImage" />
        <dc:title></dc:title>
      </cc:Work>
    </rdf:RDF>
  </metadata>
  <defs
     id="defs18" />
  <sodipodi:namedview
     pagecolor="#ffffff"
     bordercolor="#666666"
     borderopacity="1"
     objecttolerance="10"
     gridtolerance="10"
     guidetolerance="10"
     inkscape:pageopacity="0"
     inkscape:pageshadow="2"
     inkscape:window-width="2120"
     inkscape:window-height="1484"
     id="namedview16"
     showgrid="false"
     inkscape:zoom="39.333333"
     inkscape:cx="6.7646672"
     inkscape:cy="13.056965"
     inkscape:window-x="67"
     inkscape:window-y="27"
     inkscape:window-maximized="0"
     inkscape:current-layer="svg14" />
  <g
     id="g4">
    <rect
       fill="none"
       height="24"
       width="24"
       id="rect2" />
  </g>
  <g
     id="g12">
    <g
       id="g10">
      <path
         d="M20,6h-4V4c0-1.1-0.9-2-2-2h-4C8.9,2,8,2.9,8,4v2H4C2.9,6,2,6.9,2,8v12c0,1.1,0.9,2,2,2h16c1.1,0,2-0.9,2-2V8 C22,6.9,21.1,6,20,6z M10,4h4v2h-4V4z M20,20H4V8h16V20z"
         id="path6" />
      <polygon
         points="13,10 11,10 11,13 8,13 8,15 11,15 11,18 13,18 13,15 16,15 16,13 13,13"
         id="polygon8" />
    </g>
  </g>
  <path
     style="opacity:1;fill:#ffffff;fill-opacity:1;stroke:none;stroke-width:0.0614974;stroke-linecap:butt;stroke-linejoin:bevel;stroke-miterlimit:4;stroke-dasharray:0.1229948, 0.0614974;stroke-dashoffset:24.18897629;stroke-opacity:1;paint-order:normal"
     d="M 3.7120599,21.968967 C 2.9797509,21.862298 2.359933,21.338913 2.1046952,20.611679 l -0.071384,-0.20339 -0.00665,-6.342844 C 2.020095,7.8084864 2.0206891,7.7198941 2.0705352,7.5227796 2.2153933,6.9499436 2.5976721,6.4789995 3.1265316,6.2218565 3.5652433,6.0085454 3.3892666,6.022131 5.8405147,6.0123332 l 2.1800847,-0.00871 v -1.138941 c 0,-1.0600088 0.00356,-1.1528734 0.051429,-1.3400379 0.1926402,-0.753267 0.7778538,-1.3155415 1.5301259,-1.4701486 0.1699629,-0.034931 0.4880187,-0.040274 2.3972587,-0.040274 1.90924,0 2.227295,0.00534 2.397258,0.040274 0.714404,0.1468243 1.266625,0.6487202 1.508188,1.3707428 0.05818,0.1738913 0.05984,0.2053254 0.07281,1.3728814 l 0.01327,1.1949152 2.173729,0.013485 c 2.173008,0.013481 2.173792,0.013504 2.363711,0.071573 0.699773,0.213958 1.22646,0.7553487 1.39902,1.4380765 0.05014,0.1983874 0.05083,0.2858941 0.05083,6.4853404 0,6.192464 -7.4e-4,6.28713 -0.05064,6.482242 -0.201119,0.786366 -0.861067,1.374607 -1.668104,1.486855 -0.23772,0.03306 -16.3201142,0.03147 -16.5474225,-0.0016 z M 20.007888,14.00151 V 8.0015097 H 11.999413 3.9909384 l -0.00652,5.9745763 c -0.00358,3.286017 -0.00108,5.988895 0.00557,6.006396 0.00965,0.0254 1.6259955,0.03053 8.0149896,0.02542 l 8.002902,-0.0064 z M 14.020599,5.0015097 V 3.9972724 H 11.999413 9.9782265 v 0.987288 c 0,0.5430087 0.00763,0.9949155 0.016949,1.0042373 0.00932,0.00932 0.9188565,0.016949 2.0211865,0.016949 h 2.004237 z"
     id="path4759"
     inkscape:connector-curvature="0" />
  <path
     style="opacity:1;fill:#ffffff;fill-opacity:1;stroke:none;stroke-width:0.0614974;stroke-linecap:butt;stroke-linejoin:bevel;stroke-miterlimit:4;stroke-dasharray:0.1229948, 0.0614974;stroke-dashoffset:24.18897629;stroke-opacity:1;paint-order:normal"
     d="m 11.014447,16.486679 -0.0066,-1.493644 -1.4936445,-0.0066 -1.4936441,-0.0066 V 13.988513 12.99719 h 1.5 1.4999996 v -1.5 -1.4999996 h 0.978814 0.978814 v 1.4999996 1.5 h 1.5 1.5 v 0.991323 0.991322 l -1.493645,0.0066 -1.493644,0.0066 -0.0066,1.493644 -0.0066,1.493644 H 11.99929 11.020883 Z"
     id="path4761"
     inkscape:connector-curvature="0" />
</svg>
