<?xml version="1.0" encoding="UTF-8" standalone="no"?>
<svg
   xmlns:dc="http://purl.org/dc/elements/1.1/"
   xmlns:cc="http://creativecommons.org/ns#"
   xmlns:rdf="http://www.w3.org/1999/02/22-rdf-syntax-ns#"
   xmlns:svg="http://www.w3.org/2000/svg"
   xmlns="http://www.w3.org/2000/svg"
   xmlns:sodipodi="http://sodipodi.sourceforge.net/DTD/sodipodi-0.dtd"
   xmlns:inkscape="http://www.inkscape.org/namespaces/inkscape"
   height="24px"
   viewBox="0 0 24 24"
   width="24px"
   fill="#000000"
   version="1.1"
   id="svg6"
   sodipodi:docname="share.svg"
   inkscape:version="0.92.3 (2405546, 2018-03-11)">
  <metadata
     id="metadata12">
    <rdf:RDF>
      <cc:Work
         rdf:about="">
        <dc:format>image/svg+xml</dc:format>
        <dc:type
           rdf:resource="http://purl.org/dc/dcmitype/StillImage" />
        <dc:title></dc:title>
      </cc:Work>
    </rdf:RDF>
  </metadata>
  <defs
     id="defs10" />
  <sodipodi:namedview
     pagecolor="#ffffff"
     bordercolor="#666666"
     borderopacity="1"
     objecttolerance="10"
     gridtolerance="10"
     guidetolerance="10"
     inkscape:pageopacity="0"
     inkscape:pageshadow="2"
     inkscape:window-width="1544"
     inkscape:window-height="1344"
     id="namedview8"
     showgrid="false"
     inkscape:zoom="19.666667"
     inkscape:cx="12.406209"
     inkscape:cy="8.5338927"
     inkscape:window-x="67"
     inkscape:window-y="27"
     inkscape:window-maximized="0"
     inkscape:current-layer="svg6" />
  <path
     d="M0 0h24v24H0V0z"
     fill="none"
     id="path2" />
  <path
     d="M20 18c1.1 0 1.99-.9 1.99-2L22 6c0-1.11-.9-2-2-2H4c-1.11 0-2 .89-2 2v10c0 1.1.89 2 2 2H0v2h24v-2h-4zM4 16V6h16v10.01L4 16zm9-6.87c-3.89.54-5.44 3.2-6 5.87 1.39-1.87 3.22-2.72 6-2.72v2.19l4-3.74L13 7v2.13z"
     id="path4" />
  <path
     style="opacity:1;fill:#000000;fill-opacity:1;stroke:none;stroke-width:0.24598959;stroke-linecap:butt;stroke-linejoin:bevel;stroke-miterlimit:4;stroke-dasharray:0.49197918, 0.24598959;stroke-dashoffset:24.18897629;stroke-opacity:1;paint-order:normal"
     d="M 0.02033898,18.99661 V 18.081356 H 1.9076966 c 1.7308499,0 2.2487403,-0.08295 1.4790229,-0.236893 C 2.9599419,17.759107 2.3996606,17.228032 2.2100807,16.729159 2.0671913,16.353152 2.0510946,15.639738 2.0763608,10.802628 L 2.1050847,5.3035618 2.3501516,4.9460002 C 2.4849382,4.7493414 2.7561426,4.4781586 2.9528279,4.3433719 L 3.3104374,4.0983051 11.809456,4.0700446 c 9.444465,-0.031404 9.043272,-0.058139 9.659492,0.6436959 0.16805,0.1913977 0.354789,0.5308747 0.414976,0.7543933 0.07336,0.272456 0.09991,2.1582179 0.08055,5.7216742 -0.02866,5.274472 -0.03062,5.318529 -0.255393,5.738916 -0.254728,0.476414 -0.599481,0.753015 -1.197218,0.96055 -0.378323,0.131354 -0.273389,0.14317 1.5,0.168903 l 1.90678,0.02767 v 0.913011 0.913009 H 11.969492 0.02033898 Z M 20.054237,11.013559 V 5.979661 H 12.020339 3.9864407 v 5.033898 5.033899 h 8.0338983 8.033898 z"
     id="path4754"
     inkscape:connector-curvature="0" />
  <path
     style="opacity:1;fill:#000000;fill-opacity:1;stroke:none;stroke-width:0.24598959;stroke-linecap:butt;stroke-linejoin:bevel;stroke-miterlimit:4;stroke-dasharray:0.49197918, 0.24598959;stroke-dashoffset:24.18897629;stroke-opacity:1;paint-order:normal"
     d="M 0.02033898,18.99661 V 18.081356 L 1.6728814,18.0798 C 3.2634329,18.0783 3.9170191,17.98469 3.3429247,17.840599 2.9722792,17.747573 2.48287,17.302531 2.2506512,16.847344 2.0560372,16.465869 2.0501517,16.263384 2.0771443,10.878021 L 2.1050847,5.3035673 2.3501516,4.946003 C 2.4849382,4.7493426 2.7561426,4.4781586 2.9528279,4.3433719 L 3.3104374,4.0983051 11.809456,4.0700446 c 9.442363,-0.031397 9.043463,-0.057923 9.658224,0.6422514 0.167352,0.1906032 0.35228,0.5194123 0.410951,0.730687 0.154615,0.556764 0.145656,10.465803 -0.01002,11.084053 -0.142482,0.565847 -0.75551,1.224238 -1.232805,1.324028 l -0.32733,0.06844 0.406779,0.07507 c 0.223729,0.04129 1.036017,0.07771 1.805085,0.08093 l 1.398301,0.0059 v 0.915254 0.915254 H 11.969492 0.02033898 Z M 20.054237,11.013559 V 5.979661 H 12.020339 3.9864407 v 5.033898 5.033899 h 8.0338983 8.033898 z"
     id="path4756"
     inkscape:connector-curvature="0" />
  <path
     style="opacity:1;fill:#000000;fill-opacity:1;stroke:none;stroke-width:0.1229948;stroke-linecap:butt;stroke-linejoin:bevel;stroke-miterlimit:4;stroke-dasharray:0.24598959, 0.1229948;stroke-dashoffset:24.18897629;stroke-opacity:1;paint-order:normal"
     d="M 0.00959889,18.989836 V 17.998311 H 1.7638362 c 0.9648305,0 1.7542373,-0.01751 1.7542373,-0.03891 0,-0.0214 -0.1105589,-0.07818 -0.2456865,-0.126173 C 2.7326711,17.641535 2.2124879,17.056308 2.0940901,16.507594 2.0535948,16.319919 2.04179,14.678161 2.0530752,10.803395 L 2.0689209,5.3627174 2.2618694,5.0472436 C 2.492471,4.6702063 2.8175566,4.3722171 3.2068288,4.1810483 L 3.4926497,4.0406835 11.806209,4.0249543 c 6.178438,-0.01169 8.385383,-5.399e-4 8.59322,0.043413 0.382538,0.080899 0.835666,0.3301242 1.052557,0.578918 0.09923,0.1138265 0.251941,0.3556861 0.339355,0.5374657 l 0.158936,0.3305085 0.01363,5.3341655 c 0.01482,5.798464 0.02076,5.660663 -0.265225,6.147957 -0.239067,0.40735 -0.872105,0.899234 -1.157284,0.899234 -0.05342,0 -0.08298,0.02288 -0.0657,0.05085 0.01995,0.03228 0.661544,0.05085 1.757238,0.05085 h 1.725812 v 0.991525 0.991525 H 11.984175 0.00959889 Z M 20.043497,11.006785 V 5.9983106 H 12.009599 3.9757006 v 5.0084744 5.008475 h 8.0338984 8.033898 z"
     id="path4758"
     inkscape:connector-curvature="0" />
  <path
     style="opacity:1;fill:#ffffff;fill-opacity:1;stroke:none;stroke-width:0.1229948;stroke-linecap:butt;stroke-linejoin:bevel;stroke-miterlimit:4;stroke-dasharray:0.24598959, 0.12299480000000000;stroke-dashoffset:24.18897629;stroke-opacity:1;paint-order:normal"
     d="M 0.00959889,18.990495 V 17.999629 L 1.776548,17.986258 3.5434972,17.972887 3.2016812,17.811458 C 2.7800597,17.61234 2.41753,17.259184 2.218393,16.853594 L 2.0689209,16.549158 V 10.955938 5.3627174 L 2.2179087,5.1092238 C 2.440474,4.7305425 2.7693619,4.4053556 3.1246667,4.2126697 L 3.4418023,4.0406835 h 8.5195827 8.519583 l 0.385278,0.1904131 c 0.455968,0.2253495 0.701648,0.4771212 0.924461,0.9473813 l 0.15957,0.3367819 v 5.4661012 5.466102 l -0.122469,0.305085 c -0.165693,0.412763 -0.686009,0.94039 -1.057459,1.072317 -0.144127,0.05119 -0.250873,0.111156 -0.237212,0.133259 0.01366,0.0221 0.790012,0.04019 1.725226,0.04019 h 1.700388 v 0.991525 0.991525 H 11.984175 0.00959889 Z M 20.043497,11.006785 V 5.9983106 H 12.009599 3.9757006 v 5.0084744 5.008475 h 8.0338984 8.033898 z"
     id="path4760"
     inkscape:connector-curvature="0" />
  <path
     style="opacity:1;fill:#ffffff;fill-opacity:1;stroke:none;stroke-width:0.1229948;stroke-linecap:butt;stroke-linejoin:bevel;stroke-miterlimit:4;stroke-dasharray:0.24598959, 0.1229948;stroke-dashoffset:24.18897629;stroke-opacity:1;paint-order:normal"
     d="M 7.107221,14.604243 C 7.2718365,13.879553 7.7676846,12.701368 8.1787715,12.058131 9.1224807,10.581488 10.698113,9.5611512 12.556209,9.2234214 l 0.470339,-0.085489 v -1.014726 c 0,-0.61981 0.01882,-1.0081296 0.04837,-0.9977768 0.06752,0.023659 3.866884,3.5653774 3.866884,3.6046574 0,0.04739 -3.820886,3.607207 -3.871748,3.607207 -0.02393,0 -0.04351,-0.469068 -0.04351,-1.042373 v -1.042373 l -0.216102,1.52e-4 c -0.368572,3.06e-4 -1.366834,0.104101 -1.766949,0.183737 -1.4281888,0.284255 -2.4957057,0.85697 -3.4607425,1.856663 -0.2394255,0.248045 -0.451514,0.450973 -0.4713078,0.450973 -0.019794,0 -0.021695,-0.06292 -0.00423,-0.13983 z"
     id="path4762"
     inkscape:connector-curvature="0" />
</svg>
